{
	"asset": {
		"generator": "Khronos glTF Blender I/O v3.4.50",
		"version": "2.0"
	},
	"scene": 0,
	"scenes": [
		{
			"name": "Scene",
			"nodes": [0]
		}
	],
	"nodes": [
		{
			"mesh": 0,
			"name": "barrel_grp",
			"scale": [100, 100, 100]
		}
	],
	"materials": [
		{
			"doubleSided": true,
			"name": "barrel_mat.001",
			"normalTexture": {
				"index": 0
			},
			"pbrMetallicRoughness": {
				"baseColorTexture": {
					"index": 1
				},
				"metallicRoughnessTexture": {
					"index": 2
				}
			}
		}
	],
	"meshes": [
		{
			"name": "Cylinder.003",
			"primitives": [
				{
					"attributes": {
						"POSITION": 0,
						"TEXCOORD_0": 1,
						"NORMAL": 2
					},
					"indices": 3,
					"material": 0
				}
			]
		}
	],
	"textures": [
		{
			"sampler": 0,
			"source": 0
		},
		{
			"sampler": 0,
			"source": 1
		},
		{
			"sampler": 0,
			"source": 2
		}
	],
	"images": [
		{
			"mimeType": "image/png",
			"name": "barrel_Normal",
			"uri": "barrel_Normal.png"
		},
		{
			"mimeType": "image/png",
			"name": "barrel_BaseColor",
			"uri": "barrel_BaseColor.png"
		},
		{
			"mimeType": "image/png",
			"name": "barrel_Metallic-barrel_Roughness",
			"uri": "barrel_Metallic-barrel_Roughness.png"
		}
	],
	"accessors": [
		{
			"bufferView": 0,
			"componentType": 5126,
			"count": 4572,
			"max": [0.38052862882614136, 0.9179168939590454, 0.3805290162563324],
			"min": [-0.3805992901325226, -5.038894457243259e-8, -0.38061049580574036],
			"type": "VEC3"
		},
		{
			"bufferView": 1,
			"componentType": 5126,
			"count": 4572,
			"type": "VEC2"
		},
		{
			"bufferView": 2,
			"componentType": 5126,
			"count": 4572,
			"type": "VEC3"
		},
		{
			"bufferView": 3,
			"componentType": 5123,
			"count": 16992,
			"type": "SCALAR"
		}
	],
	"bufferViews": [
		{
			"buffer": 0,
			"byteLength": 54864,
			"byteOffset": 0,
			"target": 34962
		},
		{
			"buffer": 0,
			"byteLength": 36576,
			"byteOffset": 54864,
			"target": 34962
		},
		{
			"buffer": 0,
			"byteLength": 54864,
			"byteOffset": 91440,
			"target": 34962
		},
		{
			"buffer": 0,
			"byteLength": 33984,
			"byteOffset": 146304,
			"target": 34963
		}
	],
	"samplers": [
		{
			"magFilter": 9729,
			"minFilter": 9987
		}
	],
	"buffers": [
		{
			"byteLength": 180288,
			"uri": "Barrel.bin"
		}
	]
}
